<?xml version="1.0" encoding="utf-8"?>
<!-- Generator: Adobe Illustrator 21.1.0, SVG Export Plug-In . SVG Version: 6.00 Build 0)  -->
<svg version="1.1" id="圖層_1" xmlns="http://www.w3.org/2000/svg" xmlns:xlink="http://www.w3.org/1999/xlink" x="0px" y="0px"
	 viewBox="0 0 290 65" style="enable-background:new 0 0 290 65;" xml:space="preserve">
<style type="text/css">
	.st0{fill:#595757;}
	.st1{fill:#DD6B38;}
	.st2{fill:#676869;}
	.st3{fill:none;}
</style>
<g>
	<g>
		<g id="XMLID_713_">
			<g id="XMLID_715_">
				<g id="XMLID_716_">
					<path id="XMLID_767_" class="st0" d="M13.7,32.6L13.2,31l1.7-0.1c1.4-1.7,2.8-3.5,4.1-5.6l1.3,0.9c-0.8,1.2-1.8,2.7-3.1,4.4
						l9.8-0.6l-2.4-2.3l1.2-1.2c2.3,2.2,4.2,4.1,5.6,5.8l-1.3,1.1l-1.6-1.9L13.7,32.6z M29.3,43H15.4c-0.3,0-0.4-0.2-0.4-0.4v-7.7
						c0-0.3,0.2-0.4,0.4-0.4h13.8c0.3,0,0.5,0.2,0.5,0.4v7.7C29.7,42.8,29.6,43,29.3,43z M16.8,36.1C16.8,36.1,16.8,36.1,16.8,36.1
						l-0.1,5.2l0.1,0.1h11.1c0.1,0,0.2,0,0.2-0.1v-5.1l-0.2-0.1C27.9,36.1,16.8,36.1,16.8,36.1z"/>
					<path id="XMLID_750_" class="st0" d="M34.9,30.4c0.8,0.5,1.5,1.3,2.4,2.2l-1.1,1.1c-0.9-1-1.6-1.7-2.3-2.1L34.9,30.4z
						 M37.5,35.5c-0.2,3.1-0.8,5.5-2,7.4l-1.5-0.5c1.2-2.2,2-4.5,2-7L37.5,35.5z M35.1,25.9c0.8,0.4,1.5,1.1,2.4,1.9l-1,1.1
						c-0.9-0.8-1.6-1.5-2.3-2L35.1,25.9z M39,32.9l-0.5,2.4L37.3,35c0.2-0.7,0.3-1.4,0.4-2.3L39,32.9z M37.6,32.2
						c-0.1-0.3-0.2-0.8-0.3-1.3l1-0.1l0.9-1c-0.6-0.5-1.2-0.9-1.8-1.2l0.6-1.2l0.2,0.1c0.3-0.7,0.8-1.4,1.1-2.2l1.1,0.7
						c-0.3,0.6-0.7,1.3-1.2,2.3l0.8,0.5c0.3-0.7,0.6-1.2,0.8-1.8l1.2,0.4c-0.3,0.8-0.8,1.9-1.9,3.1l1.1-0.2l-0.3-0.7l1.2-0.3
						c0.3,0.7,0.5,1.5,0.7,2.5l-1,0.3l-0.1-0.5l-0.8,0.1v3.8h-1.4v-3.6L37.6,32.2z M39,41.6l-1.4-0.5l0.8-3.1
						c0.1-0.3,0.3-0.3,0.5-0.3h10.5v-0.5c0-0.1-0.1-0.1-0.2-0.1H38.3v-1.2h12.1c0.2,0,0.3,0.2,0.3,0.3v3.3h-1.4v-0.5h-9.5
						c-0.2,0-0.3,0.2-0.3,0.5l-0.1,0.4h11.9c0.3,0,0.5,0.2,0.5,0.4c-0.1,1.2-0.4,2.1-0.8,2.5l-0.5,0.4c-0.8,0.4-3.8,0.5-8.8,0.2
						l-0.1-1.4c1.7,0.2,3.1,0.3,4.2,0.3c2.5,0,3.9-0.2,4.3-0.4c0.1-0.2,0.2-0.5,0.2-0.8h-0.2h-11L39,41.6z M42.3,32.7
						c0.2,0.6,0.3,1.3,0.5,2l-1.2,0.2c-0.2-0.9-0.3-1.5-0.5-1.9L42.3,32.7z M47.1,27.1v1h-4.6v-1H47.1z M46.8,25.6v1h-4v-1H46.8z
						 M46.7,28.6v0.9h-3.8v-1L46.7,28.6L46.7,28.6z M46.5,35.2h-3.5C43,35.2,43,35.1,43,35v-3.4c0-0.1,0-0.1,0.1-0.1h3.5
						c0.1,0,0.2,0,0.2,0.1V35C46.7,35.1,46.6,35.2,46.5,35.2z M46.6,29.9v1H43v-1H46.6z M44.1,32.5L44.1,32.5v1.6v0.1h1.5l0.1-0.1
						v-1.6h-0.1L44.1,32.5L44.1,32.5z M48.5,32.7c-0.1,0.8-0.3,1.7-0.4,2.5l-1.2-0.3c0.2-0.8,0.3-1.6,0.5-2.5L48.5,32.7z M47.2,32
						c0-0.3-0.1-0.8-0.3-1.3l1-0.1l0.8-0.8c-0.6-0.7-1.1-1.2-1.6-1.7l0.8-1l0.1,0.1l1-1.9l1.1,0.7c-0.3,0.5-0.7,1.2-1.2,2l0.7,0.7
						c0.3-0.7,0.7-1.3,0.8-1.9l1.1,0.5c-0.2,0.8-0.8,1.9-2,3.2l1.1-0.2l-0.2-0.6l1.1-0.3c0.4,1,0.7,1.9,0.8,2.5L51.2,32L51,31.6
						l-0.9,0.1v3.9h-1.3V32H47.2z M51.6,32.5l0.7,2.5l-1.2,0.2l-0.7-2.5L51.6,32.5z"/>
					<path id="XMLID_744_" class="st0" d="M63.2,25.3h1.6v1.4h8v1.6H55.1v-1.6h8.1V25.3L63.2,25.3z M68.8,41.6L68.8,41.6
						c0.7,0.2,1.2,0.2,1.3,0.1c0.3-0.2,0.4-0.4,0.4-0.8v-4.8c0-0.1,0-0.1-0.1-0.1H57.5c-0.1,0-0.1,0-0.1,0.1v7.3h-1.6v-8.5
						c0-0.3,0.1-0.4,0.4-0.4h15.8c0.3,0,0.4,0.2,0.4,0.4v6.8c0,0.7-0.3,1.2-0.8,1.5c-0.7,0.5-1.8,0.5-3.5,0.1v-1.4h-8.6
						c-0.1,0-0.2-0.1-0.2-0.2v-4.4c0-0.1,0.1-0.2,0.2-0.2h9.2c0.2,0,0.3,0.1,0.3,0.2L68.8,41.6L68.8,41.6L68.8,41.6z M69.9,33.5h-12
						c-0.2,0-0.3-0.1-0.3-0.3v-3.9c0-0.2,0.1-0.3,0.3-0.3h12c0.2,0,0.3,0.1,0.3,0.3v4C70.2,33.5,70.1,33.5,69.9,33.5z M59.4,30.6
						C59.4,30.6,59.4,30.6,59.4,30.6L59.4,32c0,0.1,0,0.1,0.1,0.1h8.9l0.1-0.1v-1.3c0-0.1,0-0.1-0.1-0.1
						C68.4,30.6,59.4,30.6,59.4,30.6z M60.7,38.4C60.6,38.4,60.6,38.5,60.7,38.4l-0.1,1.9l0.1,0.1h6.5l0.1-0.1v-1.9l-0.1-0.1
						C67.3,38.4,60.7,38.4,60.7,38.4z"/>
					<path id="XMLID_735_" class="st0" d="M77,29.6l-1.4-1c1.6-1,2.7-2.1,3.1-3.1h1.5l-0.2,0.3c0.8,0.7,1.5,1.3,2.3,1.8l-1.2,1.2
						c-0.7-0.5-1.3-1.1-1.8-1.7C78.9,27.8,78,28.7,77,29.6z M78.1,35h-2.2v-1.5h2.2V32h-1.7v-1.5h4.8V32h-1.6v1.5h2V35h-2v5.7
						l1.7-0.8l0.7,1.4c-1.3,0.7-3.2,1.4-5.8,2.2l-0.6-1.4l2.6-0.8V35L78.1,35z M77.2,36.4c0.3,1.5,0.5,2.8,0.5,3.9l-1.5,0.1
						c-0.1-1.3-0.3-2.5-0.5-3.8L77.2,36.4z M81.8,36.2c-0.2,1.4-0.3,2.5-0.5,3.4l-1.4-0.3c0.3-1.4,0.4-2.5,0.4-3.4L81.8,36.2z
						 M91.8,40.7c0.2,0.4,0.3,0.7,0.3,0.7s0.2-0.1,0.2-0.2c0.1-0.3,0.1-1.2,0.1-2.5l1.4,0.4c-0.1,2.5-0.5,3.9-0.8,4.2
						c-0.2,0.2-0.4,0.2-0.7,0.2s-0.5-0.2-0.8-0.5c-0.4-0.5-0.8-1.3-1.1-2.2c-1,1.4-1.6,2.4-2,2.8L87,42.7l0.8-0.8l-5.5,1.1L82,41.5
						l2.5-0.4v-1.6h-2.2v-1.3h2.2V37h-2.1v-1.3h5.7V37h-2v1.2h2v1.3h-2v1.3l1.8-0.3l0.2,1.2c0.6-0.8,1.3-1.7,1.9-2.7
						c-0.7-2.3-1-5.3-1.2-8.7h-6.6V29h2.4v-1.1h-1.9v-1.3h1.9v-1.3h1.5v1.3H88v1.3h-1.9v1h2.6v-3.5l1.5,0.2v3.4h3.1v1.3h-3.1
						c0.2,2.8,0.3,5,0.8,6.7c0.5-1.4,1-3.2,1.4-5.3l1.3,0.2c-0.4,2.7-1.1,5.1-2.2,7.1L91.8,40.7z M88,35h-5.3
						c-0.1,0-0.2-0.1-0.2-0.2v-3.4c0-0.2,0.1-0.2,0.2-0.2H88c0.2,0,0.2,0.1,0.2,0.2v3.4C88.2,34.9,88.2,35,88,35z M83.9,32.5
						C83.9,32.5,83.9,32.5,83.9,32.5l-0.1,1.1l0.1,0.1h2.9l0.1-0.1v-1l-0.1-0.1C86.8,32.5,83.9,32.5,83.9,32.5z M92,25.5
						c0.5,0.6,1,1.3,1.5,2.2l-1.2,0.8c-0.5-0.9-1-1.7-1.5-2.1L92,25.5z"/>
					<path id="XMLID_726_" class="st0" d="M109,29.9h-6.8v-1.3c-1.5,0.5-3.2,1-5.3,1.4l-0.5-1.6c4.3-0.6,7.4-1.7,8.9-3.1l1.4,0.6
						l-0.2,0.1c2.5,1.3,5.2,2,8.1,2.4l-0.6,1.6c-1.5-0.3-3.2-0.8-5.1-1.4L109,29.9L109,29.9z M112.8,35.8H98.1
						c-0.2,0-0.2-0.1-0.2-0.2v-4.7c0-0.1,0.1-0.2,0.2-0.2h14.7c0.1,0,0.2,0.1,0.2,0.2v4.7C113,35.7,112.9,35.8,112.8,35.8z
						 M111.9,43.3H99.1c-0.1,0-0.2-0.1-0.2-0.3v-6.1c0-0.2,0.1-0.2,0.2-0.2h12.8c0.2,0,0.2,0.1,0.2,0.2V43
						C112.1,43.3,112,43.3,111.9,43.3z M101.9,34.4h2.9V32h-5.3c-0.1,0-0.1,0-0.1,0.1v2.2l0.1,0.1H101.9c-0.4-0.7-0.7-1.2-1-1.5
						l1.3-0.8c0.3,0.4,0.7,0.9,1,1.5L101.9,34.4z M110.4,39.4v-1.2c0-0.1,0-0.1-0.1-0.1h-9.8c-0.1,0-0.1,0-0.1,0.1v1.2H110.4z
						 M100.6,40.7v1.2l0.1,0.1h9.8l0.1-0.1v-1.2H100.6z M105.5,27c-0.5,0.3-1.4,0.8-2.8,1.4h5.8C107.5,28,106.6,27.5,105.5,27z
						 M109.2,34.4h2.3l0.1-0.1v-2.3l-0.1-0.1h-5.1v2.4h1c0.7-0.9,1.1-1.6,1.4-2.3l1.3,0.8C109.8,33.4,109.6,33.9,109.2,34.4z"/>
					<path id="XMLID_717_" class="st0" d="M123.9,42.2c-2.2,0.5-4.3,1-6.2,1.3l-0.2-1.7c2-0.2,4-0.7,6.1-1.2L123.9,42.2z
						 M133.7,40.5h-14.6c-0.2,0-0.3-0.1-0.3-0.3v-9.1c0-0.2,0.1-0.3,0.3-0.3h14.7c0.2,0,0.2,0.1,0.2,0.3v9.2
						C133.9,40.4,133.8,40.5,133.7,40.5z M133.4,29.9h-14c-0.2,0-0.2-0.1-0.2-0.3V26c0-0.1,0.1-0.2,0.2-0.2h14
						c0.2,0,0.2,0.1,0.2,0.2v3.6C133.6,29.9,133.6,29.9,133.4,29.9z M132.2,33.7v-1.2c0-0.1,0-0.1-0.1-0.1h-11.6
						c-0.1,0-0.1,0-0.1,0.1v1.2H132.2L132.2,33.7z M120.5,37.7V39c0,0.1,0,0.1,0.1,0.2h11.6l0.1-0.2v-1.3H120.5z M132.2,36.4v-1.4
						h-11.7v1.4H132.2z M120.8,27.3C120.7,27.3,120.7,27.3,120.8,27.3l-0.1,1.1c0,0.1,0,0.1,0.1,0.1h11l0.1-0.1v-1.1
						c0-0.1,0-0.1-0.1-0.1H120.8z M129.3,40.7c2.2,0.3,4.2,0.8,6,1.3l-0.4,1.5c-1.9-0.5-3.8-1-5.9-1.3L129.3,40.7z"/>
				</g>
			</g>
		</g>
		<polygon class="st1" points="155.3,26 139.7,26 139.7,29.9 145.3,29.9 145.3,43.3 149.8,43.3 149.8,29.9 155.3,29.9 		"/>
		<g>
			<path class="st2" d="M194.7,30.6c-0.2-1.1-0.6-2-1.3-2.7c-0.7-0.7-1.5-1.2-2.5-1.4c-2.3-0.6-4.7-0.5-7,0.2
				c-1.3,0.3-2.5,0.9-3.6,1.7s-2.2,1.7-3.1,2.7c-0.9,1.1-1.7,2.4-2.2,3.7c-0.5,1.4-0.8,2.8-0.7,3.9c0.1,1.1,0.4,2,1,2.8
				c0.6,0.8,1.4,1.4,2.5,1.7c1,0.3,2.1,0.5,3.4,0.5c1.3,0,2.7-0.2,4-0.6c1.3-0.4,2.5-1,3.6-1.7s2.2-1.6,3.1-2.8
				c0.8-1.1,1.6-2.4,2.1-3.8C194.7,33.2,194.9,31.7,194.7,30.6z M190,32.5c-0.2,0.8-0.4,1.6-0.7,2.3c-0.1,0.2-0.2,0.5-0.3,0.9
				c-0.2,0.4-0.4,0.8-0.7,1.4c-0.3,0.6-0.7,1-1,1.6c-0.4,0.5-0.8,1-1.4,1.4c-0.5,0.4-1.1,0.8-1.8,1c-0.7,0.2-1.4,0.4-2.2,0.4
				c-0.8,0-1.4-0.2-1.8-0.3c-0.4-0.3-0.8-0.5-0.9-0.9c-0.2-0.3-0.3-0.8-0.3-1.3c0-0.5,0-1,0.1-1.5c0.1-0.5,0.2-1,0.3-1.4
				c0.1-0.5,0.3-0.8,0.3-1.1c0.2-0.3,0.3-0.7,0.4-1.1c0.2-0.5,0.4-0.9,0.8-1.4c0.3-0.5,0.7-1,1.1-1.5c0.4-0.5,0.8-1,1.4-1.4
				c0.5-0.4,1.1-0.8,1.8-1c0.7-0.3,1.4-0.4,2.2-0.4c1,0,1.7,0.2,2.2,0.6c0.4,0.4,0.8,0.9,0.8,1.5C190.3,31,190.3,31.7,190,32.5
				L190,32.5z"/>
			<path class="st2" d="M169.6,26c-1.5,0-3,0.2-4.4,0.6c-1.4,0.4-2.8,1-4,1.7c-1.2,0.8-2.3,1.7-3.1,2.8c-0.8,1.1-1.6,2.3-2.2,3.7
				c-0.5,1.4-0.7,2.6-0.5,3.7c0.1,1.1,0.5,2,1.3,2.8c0.7,0.8,1.6,1.3,2.7,1.7c1.1,0.4,2.4,0.5,3.8,0.5s2.5-0.2,3.6-0.4
				c1-0.3,2.1-0.5,3.1-0.8l0.1-0.1l2.4-6.5h-4.1l-2,5.4c-0.3,0.1-0.6,0.1-1,0.2c-0.4,0.1-1,0.2-1.6,0.2c-0.7,0-1.4-0.2-2-0.3
				c-0.5-0.2-1-0.5-1.3-1c-0.4-0.5-0.5-1.1-0.5-2c0-0.8,0.2-1.9,0.7-3.1c0.4-1.1,0.9-2.2,1.6-3.1c0.7-0.8,1.4-1.6,2.1-2.2
				c0.8-0.5,1.6-1,2.5-1.3c0.9-0.3,1.8-0.4,2.7-0.4h3.4l0.8-2.1C173.5,26,169.8,26,169.6,26z"/>
		</g>
	</g>
	<g>
		<rect x="13.2" y="25.3" class="st3" width="181.5" height="18.2"/>
		<rect x="4.5" y="16.5" class="st3" width="199.1" height="36"/>
	</g>
</g>
</svg>
